<mxfile host="app.diagrams.net" modified="2020-11-05T08:53:06.801Z" agent="5.0 (Macintosh; Intel Mac OS X 10_15_5) AppleWebKit/537.36 (KHTML, like Gecko) Chrome/86.0.4240.111 Safari/537.36" etag="n9odDn5MKX-dQ6ABXKgN" version="13.8.9-1" type="github">
  <diagram id="iEV1ejRToIr8UVOdlKpQ" name="Page-1">
    <mxGraphModel dx="1298" dy="635" grid="1" gridSize="10" guides="1" tooltips="1" connect="1" arrows="1" fold="1" page="1" pageScale="1" pageWidth="827" pageHeight="1169" math="0" shadow="0">
      <root>
        <mxCell id="0" />
        <mxCell id="1" parent="0" />
        <mxCell id="WxImUXz3UTkvo0BDCWMc-9" value="" style="rounded=0;whiteSpace=wrap;html=1;strokeColor=#23445d;fillColor=#001933;" vertex="1" parent="1">
          <mxGeometry x="70" y="50" width="1210" height="630" as="geometry" />
        </mxCell>
        <mxCell id="WxImUXz3UTkvo0BDCWMc-7" value="" style="html=1;shadow=0;dashed=0;align=center;verticalAlign=middle;shape=mxgraph.arrows2.arrow;dy=0.83;dx=14;notch=0;fillColor=#60a917;strokeColor=#2D7600;fontColor=#ffffff;" vertex="1" parent="1">
          <mxGeometry x="150" y="90" width="1070" height="20" as="geometry" />
        </mxCell>
        <mxCell id="WxImUXz3UTkvo0BDCWMc-8" value="数据流向" style="text;html=1;align=center;verticalAlign=middle;resizable=0;points=[];autosize=1;fontColor=#FFFFFF;" vertex="1" parent="1">
          <mxGeometry x="580" y="70" width="60" height="20" as="geometry" />
        </mxCell>
        <mxCell id="WxImUXz3UTkvo0BDCWMc-13" value="" style="rounded=0;whiteSpace=wrap;html=1;gradientColor=none;fontColor=#FFFFFF;fillColor=#80DDFF;" vertex="1" parent="1">
          <mxGeometry x="150" y="120" width="110" height="360" as="geometry" />
        </mxCell>
        <mxCell id="WxImUXz3UTkvo0BDCWMc-14" value="模版管理" style="text;html=1;align=center;verticalAlign=middle;resizable=0;points=[];autosize=1;fontColor=#003366;" vertex="1" parent="1">
          <mxGeometry x="175" y="140" width="60" height="20" as="geometry" />
        </mxCell>
        <mxCell id="WxImUXz3UTkvo0BDCWMc-15" value="" style="rounded=0;whiteSpace=wrap;html=1;gradientColor=none;fontColor=#006666;fillColor=#60A917;" vertex="1" parent="1">
          <mxGeometry x="150" y="590" width="1060" height="30" as="geometry" />
        </mxCell>
        <mxCell id="WxImUXz3UTkvo0BDCWMc-16" value="monitor" style="text;html=1;align=center;verticalAlign=middle;resizable=0;points=[];autosize=1;fontColor=#FFFFFF;" vertex="1" parent="1">
          <mxGeometry x="630" y="595" width="60" height="20" as="geometry" />
        </mxCell>
        <mxCell id="WxImUXz3UTkvo0BDCWMc-18" value="" style="rounded=0;whiteSpace=wrap;html=1;gradientColor=none;fontColor=#FFFFFF;fillColor=#80DDFF;" vertex="1" parent="1">
          <mxGeometry x="153" y="520" width="107" height="60" as="geometry" />
        </mxCell>
        <mxCell id="WxImUXz3UTkvo0BDCWMc-19" value="Customization" style="text;html=1;align=center;verticalAlign=middle;resizable=0;points=[];autosize=1;fontColor=#003366;" vertex="1" parent="1">
          <mxGeometry x="160" y="540" width="90" height="20" as="geometry" />
        </mxCell>
        <mxCell id="WxImUXz3UTkvo0BDCWMc-20" value="" style="shape=singleArrow;direction=north;whiteSpace=wrap;html=1;gradientColor=none;fontColor=#003366;fillColor=#60A917;arrowWidth=0.3;arrowSize=0.43333333333333335;" vertex="1" parent="1">
          <mxGeometry x="175" y="490" width="60" height="30" as="geometry" />
        </mxCell>
        <mxCell id="WxImUXz3UTkvo0BDCWMc-21" value="" style="rounded=0;whiteSpace=wrap;html=1;gradientColor=none;fontColor=#FFFFFF;fillColor=#80DDFF;" vertex="1" parent="1">
          <mxGeometry x="290" y="120" width="110" height="360" as="geometry" />
        </mxCell>
        <mxCell id="WxImUXz3UTkvo0BDCWMc-22" value="预览" style="text;html=1;align=center;verticalAlign=middle;resizable=0;points=[];autosize=1;fontColor=#003366;" vertex="1" parent="1">
          <mxGeometry x="320" y="140" width="40" height="20" as="geometry" />
        </mxCell>
        <mxCell id="WxImUXz3UTkvo0BDCWMc-23" value="" style="rounded=0;whiteSpace=wrap;html=1;gradientColor=none;fontColor=#FFFFFF;fillColor=#80DDFF;" vertex="1" parent="1">
          <mxGeometry x="420" y="120" width="110" height="360" as="geometry" />
        </mxCell>
        <mxCell id="WxImUXz3UTkvo0BDCWMc-24" value="推送" style="text;html=1;align=center;verticalAlign=middle;resizable=0;points=[];autosize=1;fontColor=#003366;" vertex="1" parent="1">
          <mxGeometry x="450" y="140" width="40" height="20" as="geometry" />
        </mxCell>
        <mxCell id="WxImUXz3UTkvo0BDCWMc-25" value="" style="rounded=0;whiteSpace=wrap;html=1;gradientColor=none;fontColor=#FFFFFF;fillColor=#80DDFF;" vertex="1" parent="1">
          <mxGeometry x="555" y="120" width="505" height="460" as="geometry" />
        </mxCell>
        <mxCell id="WxImUXz3UTkvo0BDCWMc-26" value="" style="rounded=0;whiteSpace=wrap;html=1;gradientColor=none;fontColor=#FFFFFF;fillColor=#3399FF;strokeColor=none;" vertex="1" parent="1">
          <mxGeometry x="582.5" y="160" width="450" height="40" as="geometry" />
        </mxCell>
        <mxCell id="WxImUXz3UTkvo0BDCWMc-28" value="Cdn" style="text;html=1;align=center;verticalAlign=middle;resizable=0;points=[];autosize=1;fontColor=#FFFFFF;" vertex="1" parent="1">
          <mxGeometry x="780" y="170" width="40" height="20" as="geometry" />
        </mxCell>
        <mxCell id="WxImUXz3UTkvo0BDCWMc-31" value="服务" style="text;html=1;align=center;verticalAlign=middle;resizable=0;points=[];autosize=1;fontColor=#003366;" vertex="1" parent="1">
          <mxGeometry x="780" y="130" width="40" height="20" as="geometry" />
        </mxCell>
        <mxCell id="WxImUXz3UTkvo0BDCWMc-32" value="Nginx" style="rounded=0;whiteSpace=wrap;html=1;gradientColor=none;fontColor=#FFFFFF;fillColor=#3399FF;strokeColor=none;" vertex="1" parent="1">
          <mxGeometry x="582.5" y="210" width="237.5" height="40" as="geometry" />
        </mxCell>
        <mxCell id="WxImUXz3UTkvo0BDCWMc-33" value="Cache cluster" style="rounded=0;whiteSpace=wrap;html=1;gradientColor=none;fontColor=#FFFFFF;fillColor=#3399FF;strokeColor=none;" vertex="1" parent="1">
          <mxGeometry x="582.5" y="260" width="237.5" height="40" as="geometry" />
        </mxCell>
        <mxCell id="WxImUXz3UTkvo0BDCWMc-35" value="Server cluster" style="rounded=0;whiteSpace=wrap;html=1;gradientColor=none;fontColor=#FFFFFF;fillColor=#3399FF;strokeColor=none;" vertex="1" parent="1">
          <mxGeometry x="582.5" y="320" width="237.5" height="40" as="geometry" />
        </mxCell>
        <mxCell id="WxImUXz3UTkvo0BDCWMc-37" value="Data" style="rounded=0;whiteSpace=wrap;html=1;gradientColor=none;fontColor=#FFFFFF;fillColor=#3399FF;strokeColor=none;" vertex="1" parent="1">
          <mxGeometry x="582.5" y="380" width="237.5" height="40" as="geometry" />
        </mxCell>
        <mxCell id="WxImUXz3UTkvo0BDCWMc-38" value="Monitor" style="rounded=0;whiteSpace=wrap;html=1;gradientColor=none;fontColor=#FFFFFF;fillColor=#3399FF;strokeColor=none;" vertex="1" parent="1">
          <mxGeometry x="840" y="220" width="52.5" height="260" as="geometry" />
        </mxCell>
        <mxCell id="WxImUXz3UTkvo0BDCWMc-39" value="Log" style="rounded=0;whiteSpace=wrap;html=1;gradientColor=none;fontColor=#FFFFFF;fillColor=#3399FF;strokeColor=none;" vertex="1" parent="1">
          <mxGeometry x="910" y="220" width="52.5" height="260" as="geometry" />
        </mxCell>
        <mxCell id="WxImUXz3UTkvo0BDCWMc-40" value="" style="shape=singleArrow;whiteSpace=wrap;html=1;gradientColor=none;fontColor=#003366;fillColor=#60A917;arrowWidth=0.2;arrowSize=0.3142857142857143;" vertex="1" parent="1">
          <mxGeometry x="1080" y="250" width="50" height="40" as="geometry" />
        </mxCell>
        <mxCell id="WxImUXz3UTkvo0BDCWMc-42" value="" style="shape=singleArrow;whiteSpace=wrap;html=1;gradientColor=none;fontColor=#003366;fillColor=#60A917;arrowWidth=0.2;arrowSize=0.3142857142857143;" vertex="1" parent="1">
          <mxGeometry x="1080" y="350" width="50" height="40" as="geometry" />
        </mxCell>
        <mxCell id="WxImUXz3UTkvo0BDCWMc-43" value="" style="rounded=0;whiteSpace=wrap;html=1;gradientColor=none;fontColor=#FFFFFF;fillColor=#80DDFF;" vertex="1" parent="1">
          <mxGeometry x="1140" y="220" width="110" height="80" as="geometry" />
        </mxCell>
        <mxCell id="WxImUXz3UTkvo0BDCWMc-44" value="" style="rounded=0;whiteSpace=wrap;html=1;gradientColor=none;fontColor=#FFFFFF;fillColor=#80DDFF;" vertex="1" parent="1">
          <mxGeometry x="1140" y="340" width="110" height="80" as="geometry" />
        </mxCell>
        <mxCell id="WxImUXz3UTkvo0BDCWMc-45" value="User" style="text;html=1;align=center;verticalAlign=middle;resizable=0;points=[];autosize=1;fontColor=#003366;" vertex="1" parent="1">
          <mxGeometry x="1170" y="250" width="40" height="20" as="geometry" />
        </mxCell>
        <mxCell id="WxImUXz3UTkvo0BDCWMc-46" value="Admin" style="text;html=1;align=center;verticalAlign=middle;resizable=0;points=[];autosize=1;fontColor=#003366;" vertex="1" parent="1">
          <mxGeometry x="1170" y="370" width="50" height="20" as="geometry" />
        </mxCell>
        <mxCell id="WxImUXz3UTkvo0BDCWMc-47" value="Kafka" style="rounded=0;whiteSpace=wrap;html=1;gradientColor=none;fontColor=#FFFFFF;fillColor=#3399FF;strokeColor=none;" vertex="1" parent="1">
          <mxGeometry x="426" y="240" width="98" height="40" as="geometry" />
        </mxCell>
        <mxCell id="WxImUXz3UTkvo0BDCWMc-48" value="CI/CD" style="rounded=0;whiteSpace=wrap;html=1;gradientColor=none;fontColor=#FFFFFF;fillColor=#3399FF;strokeColor=none;" vertex="1" parent="1">
          <mxGeometry x="157.5" y="240" width="98" height="40" as="geometry" />
        </mxCell>
      </root>
    </mxGraphModel>
  </diagram>
</mxfile>
